<svg id="Layer_1" data-name="Layer 1" xmlns="http://www.w3.org/2000/svg" viewBox="0 0 104 104"><defs><style>.cls-1{fill:#fff;}.cls-2{opacity:0.5;}</style></defs><title>markwhite-transparent_</title><path class="cls-1" d="M64,68a16,16,0,0,1-12-5.45A16,16,0,0,1,40,68a15.56,15.56,0,0,1-4-.53A32.21,32.21,0,0,0,52,81.66,32.21,32.21,0,0,0,68,67.47,15.56,15.56,0,0,1,64,68Z"/><path class="cls-1" d="M40,36a16,16,0,0,1,12,5.45A16,16,0,0,1,64,36a15.56,15.56,0,0,1,4,.53A32.21,32.21,0,0,0,52,22.34,32.21,32.21,0,0,0,36,36.53,15.56,15.56,0,0,1,40,36Z"/><g class="cls-2"><path class="cls-1" d="M40,36a15.56,15.56,0,0,0-4,.53,31.92,31.92,0,0,0,0,30.94A15.56,15.56,0,0,0,40,68a16,16,0,0,0,12-5.45,15.91,15.91,0,0,1,0-21.1A16,16,0,0,0,40,36Z"/><path class="cls-1" d="M64,20a32,32,0,0,0-12,2.34A32.21,32.21,0,0,1,68,36.53a16,16,0,0,1,0,30.94A32.21,32.21,0,0,1,52,81.66,32,32,0,1,0,64,20Z"/></g><g class="cls-2"><path class="cls-1" d="M68,36.53A15.56,15.56,0,0,0,64,36a16,16,0,0,0-12,5.45,15.91,15.91,0,0,1,0,21.1A16,16,0,0,0,64,68a15.56,15.56,0,0,0,4-.53,31.92,31.92,0,0,0,0-30.94Z"/><path class="cls-1" d="M36,67.47a16,16,0,0,1,0-30.94A32.21,32.21,0,0,1,52,22.34a32,32,0,1,0,0,59.32A32.21,32.21,0,0,1,36,67.47Z"/></g></svg>