<svg xmlns="http://www.w3.org/2000/svg" viewBox="0 0 325.81 300"><title>Logomark copy</title><g id="Mark"><path d="M321.5,109.93c-1.76-3.61-4.4-7-5.72-10.8-1.09-3.1,0-6.59,0-9.79.07-7.4-3.3-13.21-9.19-17.44-2.55-1.83-5.31-3.37-7.76-5.36a22.07,22.07,0,0,1-6.6-9.67c-1.21-3.15-2.3-6.65-4.28-9.42a15.55,15.55,0,0,0-7.14-5c-2.58-1-5.31-1.8-7.69-3.28-2.82-1.76-4-4.88-6.37-7.13-2.59-2.48-5.77-3.62-9.25-4.36a19.66,19.66,0,0,1-9.16-4.62c-2.75-2.49-5.66-3.49-9.25-4.15-4.51-.82-8.11-1.91-11.78-4.7-5.56-4.22-10-9.09-17.48-9.27-7.68-.19-17.48,4.5-24.22-.75C183.1,2.24,181.17.13,177.8,0s-6.9,1.36-10.07,2.35c-3.56,1.12-7.24,1.83-10.86,2.72-3,.74-4.89,1.47-7.65,0-3.37-1.78-6.57-3.24-10.48-2.79-4.26.49-8.13,2.61-11.89,4.51-6.8,3.43-13.07,7.32-20.72,8.43A48.35,48.35,0,0,0,83.06,25c-2.62,2.09-4.49,4.92-7,7-3.2,2.65-7.91,2.23-11.52,4.19C57.53,40,54,47,49.78,53.38,46,59,40.72,63.48,36.07,68.31,30.9,73.67,26.3,79.56,23.61,86.57c-1.26,3.31-1.74,6.77-2.66,10.17A42.08,42.08,0,0,1,16.61,107c-2,3.4-4.62,6.43-6.36,10-2.19,4.45-2.17,8.31-2,13.15a6.17,6.17,0,0,1-1,3.52,3.48,3.48,0,0,1-1.12,1.63l-.91,1.23a28,28,0,0,0-4.68,9,20.36,20.36,0,0,0,.33,10.81c1,3.59,2.66,7.17,2.42,11-.39,6.33-.89,12.12.34,18.44,1.18,6.08,3.65,12.53,8.18,16.92a51.34,51.34,0,0,0,5.19,4c2.68,2,5,4.41,7.72,6.39,7.3,5.36,14.61,10.71,22,15.94,6.73,4.77,13.84,8.59,20.84,12.92a92.78,92.78,0,0,1,10.19,7.65c-1.87,1-3.46,2.33-4,4.6-.55,2.47,2.56,10.58-.71,11.26a1.26,1.26,0,0,0-1.09,1A16.61,16.61,0,0,0,71.6,270a10.68,10.68,0,0,1-1.25,4.38c-1.09,2.05-1.8,3.8-1.23,6.16.44,1.81,1.83,3.22,2.2,5,.42,2,.05,3.95.86,5.92,1.69,4.14,5.39,5.55,9.58,5.35,5.54-.26,10.94-1.08,16.53-1.13A220,220,0,0,0,125,294.27c4.1-.53,8.21-1,12.34-1.2h0c10.87,6,23.33,9.28,35.47,5a50.15,50.15,0,0,0,9.7-4.83c4.64.84,9.85.72,14.43.81,5.92.13,11.36-1.33,17.15-2.29a14.24,14.24,0,0,1,8.9,1.09,26.85,26.85,0,0,0,8.64,2.34,19.39,19.39,0,0,0,14-4.37c8.48-7.21,11.12-21,11.42-31.53.08-2.67,0-5.52,1.14-8,1.3-3,4.5-4.38,6.87-6.39,4.47-3.8,6.76-9.28,12-12.26s11.77-5.05,15.13-10.65a25.2,25.2,0,0,0,1.64-4.08c.77-2,1.93-2.81,3.54-4.17a14.15,14.15,0,0,0,3.17-4.12c6.11-6.72,10-14.24,13.33-22.69,3.21-8.06,8-16,9-24.75.51-4.3.23-8.6.41-12.91.19-4.66,1.44-9.25,2-13.87A43,43,0,0,0,321.5,109.93ZM273.28,56.25A3.91,3.91,0,0,1,279,54.32l0,0c2.84,1.72,4.08,4.76,5.24,7.74a63.86,63.86,0,0,0,3.55,8.4,20.43,20.43,0,0,0,1.36,2.1,6.86,6.86,0,0,1-.33,8.56,89.71,89.71,0,0,0-7.34,9.36c-4.08,6.17-6.83,13.11-9.24,20.07s-4.53,14-7.89,20.74-7.37,13.05-11,19.63-7.73,10.91-11,17.83c-3.46,7.34-7.14,16.66-11,23.79-5.8,10.75-13.5,19.77-20.06,29.79a1.15,1.15,0,0,1-2.11-.68c.19-4.13.56-10,1.18-12,1.2-3.88,4.38-6.07,6.22-9.55a50.32,50.32,0,0,0,3.46-9.61c1.21-4.18,2.74-8.21,4.32-12.26q4.86-12.45,9.77-24.87c6.77-17.09,14.08-33.92,21.46-50.74,2-4.48,3.28-9.25,4.88-13.88s3.44-9,5.23-13.53C268.23,68.89,270.83,62.59,273.28,56.25ZM228.94,82.42a38.62,38.62,0,0,0,3.35-10.65c1.26-7.92,1.29-16,3.06-23.87.82-3.65,1.88-7.34,2.62-11.07a4,4,0,0,1,6.28-2.43,24.55,24.55,0,0,0,3.41,2.19c3.57,1.67,7.69,1.49,11.19,3.45,2.51,1.4,3.71,3.74,5.42,5.94a11.42,11.42,0,0,0,1.12,1.27,7.36,7.36,0,0,1,1.31,8.34c-2.68,5.64-5,11.45-7.46,17.16a232,232,0,0,0-9.07,23.44c-1.17,3.77-2.13,7.55-3.09,11.37a97.37,97.37,0,0,1-4.87,13.32c-3.41,8.25-6.83,16.51-10,24.84-6,15.7-13.1,31.16-17.86,47.29-1,3.49-2.1,7.29-4.5,10.11-.92,1.09-1.74,2.11-2.47,3.17a2.35,2.35,0,0,1-3.38.48c-3-2.32-6.85-3-7.38-4.72-.78-2.46,1.28-4.74,1.63-7.16s1.52-4.15,2.27-6.49c1.23-3.82,1.51-8.53,3.24-12.26,1.41-3,2.29-6.51,3.48-9.69,1.3-3.49,2.75-6.82,3.72-10.43,1.94-7.17,3.87-14.36,5.43-21.62,1.51-7.05.81-14.59,2.67-21.49.88-3.26,2.52-5.55,3-8.9a17.63,17.63,0,0,1,.15-2.56,22,22,0,0,1,1.9-4.7,14.52,14.52,0,0,0,1.86-5A52.22,52.22,0,0,1,228.94,82.42ZM162.11,273.67c-1.69,0-5.65-2.62-7.78-4.59-2.69-2.48-5.72-5.84-8.45-8.24-6.26-5.5-10.68-12.17-14.19-19.68-1.51-3.21-2.37-7-3.48-10.31-1-3-1.1-8.29,0-12.36a15,15,0,0,1,3.48-6.26c.52-.53,1-1,1.43-1.57a29.19,29.19,0,0,1,7.86-4.43c2.45-.92,6.31-2.24,9.22-1.91a10.47,10.47,0,0,1,5.58,2.41c1.84,1.55,6.8,9.14,7.56,10.15a28.72,28.72,0,0,0,2,2.59,1.78,1.78,0,0,0,2.73-.24c1-1.17,8.65-9.06,11.24-10.71a27,27,0,0,1,12.34-3.39c4.69,0,9.22,3.72,10.68,8.11a28.9,28.9,0,0,1,1.4,6.88c-.06,1.66-.1,3.33-.16,5-.08.21-.52,7.64-1.9,11.08-3.24,8.09-9.67,15.22-16.09,21C178.31,263.64,163.79,273.67,162.11,273.67ZM198.79,57.8c.56-8.18.86-16.52,3.21-24.43,1.3-4.4,3.22-8.78,4.15-13.29a4.29,4.29,0,0,1,6.11-3l.08,0c2.92,1.46,5.38,3.69,7.89,5.76,4.88,4,8.28,8.25,5.58,19.23-1.66,6.75-2,13.68-2.77,20.57-.35,3.19-.84,6.35-1.5,9.49-.79,3.82-.87,7.73-1.73,11.54-.7,3.11-2,6.64-1.84,9.83.1,2.32.44,3.84-.17,6.31-.51,2-1.49,4.3-1.86,6.39-.62,3.53,0,6.27-1.13,9.69S213,123.76,212,127.32c-1.88,6.75-3.11,13.67-5.12,20.4a193,193,0,0,0-5.47,21,99.37,99.37,0,0,1-1.92,10.53c-1,3.57-2,7.16-3,10.73-.76,2.6-1.12,5.64-2.51,8-2.1,3.58-6.18,3.41-9.81,3.79-.47.05-1,.13-1.47.23a1.64,1.64,0,0,1-1.93-2.08c1.32-4.31,1.18-8.74,1.17-13.36,0-6.68.17-13.39,1.9-19.88.85-3.2,1.78-6.42,2.89-9.54,1.26-3.57,1.46-7.32,2.55-10.94,2.13-7.1,3.1-14.5,4.18-21.82s2.17-14.92,2.91-22.43C197.83,87.28,197.79,72.51,198.79,57.8ZM163.27,13.54h0c2.89-.78,5.69-2,8.64-2.49,3.58-.65,5.3.87,8,3.07,3.35,2.76,7.2,3.36,11.18,3.19a4.11,4.11,0,0,1,4,5.32c-1,3.36-2.25,6.66-3.36,10.11-2.12,6.66-2.72,13.62-3.21,20.55-1,14.69-1.21,29.42-2.36,44.1s-4.31,29-5.41,43.63c-.54,7.23-.14,14.43-2.1,21.49A68.84,68.84,0,0,0,176,180.42c-.09,7.07,1.23,14.73-1.25,21.51a35.49,35.49,0,0,1-3,5.83c-.34.57-.9,1.4-1.5,2.27a1.75,1.75,0,0,1-3.2-.89v0c-.15-3.56-.66-7-1.07-10.54-.7-6.1-1.6-12.24-2-18.38a268.74,268.74,0,0,1,.7-41.6c1.27-13.82,3.29-27.25,1.75-41.15-1.45-13.07-4.5-26-5-39.14-.31-7.92-.29-15.84-.61-23.76-.21-5.18-.78-10.33-1.37-15.48A5.1,5.1,0,0,1,163.27,13.54Zm-43,6.19,3.9-2c3.26-1.66,6.64-3.72,10.25-4.47,4.12-.85,6.93,1,10.48,2.68a9.36,9.36,0,0,0,1.75.64,6.24,6.24,0,0,1,4.88,6.32c-.19,3.67-.37,8.07-.39,11,0,7.12.29,14.26.37,21.39.15,13.51,2.94,26.6,4.81,39.92a135.21,135.21,0,0,1,1.44,19.89c-.06,7.21-1.27,14.32-1.71,21.5a61.84,61.84,0,0,0,.1,9.43c.31,3.47,1.21,6.82,1.45,10.29.48,6.85.15,13.57,0,20.42-.18,7.32,1.46,14.55,2.37,21.78.2,1.55.43,3.1.65,4.64a1.46,1.46,0,0,1-2.28,1.4l0,0c-5.33-3.67-13.27-4.38-16.59-10.55-1.58-2.93-1.33-6.2-1.34-9.42,0-4.13-.13-8.27-.15-12.4,0-7.34-.06-14.68-.42-22a235.53,235.53,0,0,0-6.37-42.57C130,93.38,131,80.25,127.85,66c-1.69-7.6-6-16.52-7.36-24.2A73.55,73.55,0,0,0,118,30.91c-.35-1.07-.72-2.12-1.07-3.16A6.7,6.7,0,0,1,120.24,19.73ZM80,37.38c.81-.88,1.62-1.76,2.52-2.57,6-5.49,14-7.76,21.87-9,.6-.1,1.2-.22,1.78-.35a6.11,6.11,0,0,1,7.2,4.23c.69,2.39,1.42,4.79,1.92,7.32,1.39,7,2.34,13.93,4.19,20.84,3.88,14.54,5.14,29.47,8.14,44.17,1.44,7.06,3.4,13.93,5.41,20.84,2.16,7.47,2.93,15.5,3.45,23.23.54,7.9.63,15.81.64,23.72,0,6.79-.57,14.15.64,20.85a20,20,0,0,0,3.62,8.52,2.11,2.11,0,0,1-1.1,3.35h0l-.5.14a3.26,3.26,0,0,1-4.08-2.33c-.09-.37-.2-.74-.33-1.13a58.26,58.26,0,0,0-3.82-7.87c-1.66-3.24-2.89-6.73-4.33-10.07-3.2-7.4-3.41-12.85-5.26-20.68-.78-3.31-2.14-11-3.09-14.22-1.08-3.71-2.09-7.47-3.32-11.13-1.35-4-3.45-7.31-5.13-11.12s-2.75-9.15-3.91-13.27c-2.27-8-7.22-14.25-10.19-22C95,85.23,93.8,81.61,92.53,78c-1.4-4-1.15-8.61-1.92-12.83a33.93,33.93,0,0,0-5.32-12.77c-1.55-2.34-4.88-3.52-6.2-6l-.15-.28A7.64,7.64,0,0,1,80,37.38Zm-28.6,23,0,0c3.78-5,6.79-11.92,12.83-14.53a19.63,19.63,0,0,1,3.42-1.08A5.7,5.7,0,0,1,74,47.52l0,0a60,60,0,0,0,8.29,11.58c2.39,2.62,2.73,5.09,3.2,8.46.51,3.72,1.67,8.93,3.45,12.21,4,7.44,5.63,14.31,8.36,22.23,1.33,3.85,2.74,7.78,4.43,11.49a48.25,48.25,0,0,1,3.7,13c.58,3.82,2.26,7.86,3.73,11.4,1.67,4,3.09,8.06,4.51,12.15,2.78,8,5.73,15.83,8.28,23.89a163.81,163.81,0,0,0,6.87,19.13c1.39,3,3.61,7,2.51,10.41-1,3-4,5.09-5.84,7.52,0,.06-.07.13-.12.19l-.08.09a13,13,0,0,0-2.61,4.79,1.22,1.22,0,0,1-2.32,0c-.79-2.21-1.4-4.53-2.21-6.63-1.63-4.2-3.72-8.12-5.73-12.15-1.57-3.15-3.56-6.13-4.92-9.38-1.59-3.77-2-8-3-12-2.29-9.2-6.63-17.64-11.13-25.94-3.45-6.36-7.3-12.5-11.21-18.59-4.64-7.22-7.35-16.37-10.55-24.31-3.5-8.7-7.61-16-11.87-24.44C58,79.26,56.12,75.84,54,72.52c-.88-1.39-1.83-3.08-2.88-4.74A6.47,6.47,0,0,1,51.44,60.38Zm60.5,228.69c-6,.24-12,.16-18,.3-4.9.12-9.67,1-14.55,1.21a8.08,8.08,0,0,1-3.27-.2c.1-.06-.06-.47-.11-1.18a14.89,14.89,0,0,0-1.23-5.52c-.29-.61,11.35.08,14.71.26,4.12.22,8.24.63,12,2.55.3.15,1.78-.07,1.25-.43-3.36-2.28-7.46-2.78-11.42-3-4.13-.26-17.47-2.22-17.37-2.59a17.28,17.28,0,0,1,1.48-2.54c.46-1,0-1.93.71-2a45.66,45.66,0,0,1,8.1.24c2.4.36,4.78.77,7.16,1.2a40.15,40.15,0,0,1,7.46,1.7,12.31,12.31,0,0,0,5.68,1.24c.49-.05-.28-.63-.42-.67-2.36-.74-4.64-1.57-7.06-2.13-2.88-.68-5.75-1.37-8.63-2-1.85-.42-3.71-.73-5.58-1a56.32,56.32,0,0,1-6.6-1.78,4.43,4.43,0,0,1,.19-1.34c3.56-1.45,2.94-6.59,1.91-7.31,3.92,2,10,2.18,13.53,3.9,2,.95,3.93,2,5.87,3a21.71,21.71,0,0,0,6.34,2.56c.22,0,1.39-.13,1-.58-1.28-1.62-3.33-2.39-5.17-3.22q-3.21-1.45-6.4-2.94c-4.12-1.91-10.46-5.11-15-6.21-.27-1.78-.19-3.25,1.64-4.37A15.69,15.69,0,0,1,84,254.71c1.24,1,2.49,1.94,3.78,2.85,6.86,4.83,14,9.27,20.81,14.15s12.88,10.58,19.61,15.51C122.79,287.84,117.39,288.85,111.94,289.07ZM317,135.71v0a11.92,11.92,0,0,1-4.28,8.39c-3.77,3.13-7.51,6.33-11.16,9.59-2.6,2.32-4.9,4.93-7.53,7.25-2.31,2-4.6,4.11-6.77,6.3-11,11.1-23,22-31.45,35.33-.23.36.26,1.82.69,1.38,10.69-11,21.23-22.24,31.42-33.69a75.18,75.18,0,0,1,7.23-7.16c2.59-2.23,5.5-3.79,8.18-5.85a68.42,68.42,0,0,0,7.38-6.51,2.39,2.39,0,0,1,4.1,1.89c-.31,3.29-.59,6.8-.61,8.93v0a8.9,8.9,0,0,1-2.93,6.44c-5.31,4.86-12.44,11.63-15.33,14.78-4,4.37-8,8.77-12.21,13s-9.44,7.67-13.88,11.43a58.3,58.3,0,0,1-14.31,9.39c-.09,0,.74,1,.82,1A54.25,54.25,0,0,0,271,211.79c5.36-2.91,10.18-8.73,14.52-13s8.25-8.54,12.22-13c3.1-3.45,12-13.31,12.94-11.9s-1.88,5.69-3.37,9.31a129.46,129.46,0,0,1-10.54,21,13.24,13.24,0,0,0-1.45,3.11,16.38,16.38,0,0,1-4.49,5.68c-2.68,2.07-3.07,4.4-4.37,7.36-2.45,5.61-9.25,7.27-14.07,10.13a49.81,49.81,0,0,0-5.69,4.51,84,84,0,0,1-6,7.41c-2.72,2.55-13.82,9.31-16.74,11.21-4.66,3-9.23,7.33-13.63,10.72-.49.39-.9,1.89.05,1.18,4.27-3.15,8.61-6.23,13.12-9,2.62-1.62,7.46-2.91,7.31-1.93a50.27,50.27,0,0,0-.36,6c0,.43-3.69,2.06-5.41,2.31-3.39.49-7,2-10.25,3.13a113.65,113.65,0,0,0-18.17,8.65c-.38.21-1.08,1.63-.3,1.22a122.83,122.83,0,0,1,17.89-7.88,68.29,68.29,0,0,1,9.09-1.92c.87-.17,1.74-.3,2.62-.42,2.18-.29,3.9,1.23,3.46,3.38-.24,1.16-.5,2.31-.77,3.46v0c-.53,2.26-2.42,3-4.74,2.91-4.88-.24-10.62.67-14.72,1.16a43.77,43.77,0,0,0-16.18,4.95c-.7.38,0,.75.48.49A45.33,45.33,0,0,1,229.16,278c3.67-.36,8.51-.24,12.92-.23a3.48,3.48,0,0,1,3.1,5,20.83,20.83,0,0,1-3.94,5.6c-4.51,4.45-9.36,2.75-14.56.57-6.13-2.56-12.14-1.29-18.44,0-6,1.26-11.58,1.09-17.71.77-.84,0-1.75-.14-2.68-.22,1.82-1.33,3.58-2.71,5.28-4.08,3.12-2.53,5.88-5.47,9.14-7.82,3.69-2.67,8.85-7.18,12.44-10,13.58-10.74,24.08-24.39,38.84-33.69,7.49-4.72,13.88-8.83,21.74-12.88,1.71-.88,4.91-3.19,5.16-5,.16-1.25-1.5-1.18-3.27-.39-7.73,3.45-14.9,8.09-22.14,12.44a138.87,138.87,0,0,0-19.17,14.25c-4.78,4.13-8.42,7.53-13.13,11.73,2.07-3.71,3-8,5.18-10,2.94-2.72,5.44-6.16,8.48-8.76,6-5.17,11.84-9.49,16.83-15.71.09-.11-.88-.93-1-.79-5.3,6.06-11.25,9-17.74,13.71-6.16,4.47-15.73,23.29-18.08,26.23s-12.64,8.68-18.61,13.87-12.28,10.52-19.51,14a33.24,33.24,0,0,1-22.41,2.22c-15.53-3.7-26.55-15.15-38.85-24.42l-.62-.46-3.89-2.82c-5.18-3.66-10.52-7.08-15.78-10.63C90,246,83.92,240.86,77.6,235.77c-6.08-4.89-13.38-7.85-19.84-12.15-7.25-4.82-14.33-10-21.24-15.29C33.42,206,30,204,27.08,201.41c-2.09-1.84-4.22-3.64-6.46-5.31a24.37,24.37,0,0,1-9.14-12.55c-1.08-3.32-1.53-9.05-1.7-12.81A2,2,0,0,1,12.83,169,28,28,0,0,1,16,171.23a61.47,61.47,0,0,1,8.32,9.64,53.36,53.36,0,0,1,5.07,8.54,7.86,7.86,0,0,0,1.42,2.19c3,3.26,7.1,3.13,10.62,5.32,2.47,1.55,3.72,4.17,5.67,6.23,1.52,1.61,3.31,2.84,4.8,4.5a123.45,123.45,0,0,1,8.28,11,30.59,30.59,0,0,0,10.89,8.95c4.39,2.15,7,6.47,11.84,8,.07,0,.56-.09.43-.19-3.81-2.88-6.06-7.14-9.47-10.43-3.62-3.5-9-6.13-12.67-9.58-3-2.84-4.41-6.08-7.08-9.25-3-3.5-3.71-8.2-6.4-11.78-2-2.62-5.44-4.55-8-6.64-1.67-1.39-3.6-2.39-5.1-3.95s-2.91-3.52-4.55-5.11c-1.82-1.76-4-3-5.71-4.86a63.27,63.27,0,0,0-4.48-4.64c-1.86-1.61-4.15-2.26-6.1-3.71-.24-.18-.47-.36-.69-.56a9.57,9.57,0,0,1-3.24-6.27,21.63,21.63,0,0,0-.35-2.19c-.74-3.41-2.48-6.74-2.78-10.25v0a2.65,2.65,0,0,1,3.58-2.6c4.73,1.71,15,5.07,19,8.76,7.49,7,12.93,16.14,19.43,24,6.38,7.73,13.5,14.68,20.27,22a194.62,194.62,0,0,1,18.72,23.55c6,9.05,14,16.44,21.65,24,.5.5.63-.92.39-1.25-5.91-8-13.87-14.42-19.43-22.67-5.91-8.76-11.13-17.88-17.26-26.5-3.15-4.41-6.44-8.73-9.73-13s-7.17-8-10.63-12.09c-6.6-7.78-12.17-16.7-19.37-23.92a33.82,33.82,0,0,0-12-8.25c-1.77-.67-3.58-1.25-5.38-1.83a3.17,3.17,0,0,1-2-4.06v0a19.06,19.06,0,0,0,1-5.12c.11-2-.44-4.08-.26-6.09.28-3.17,3.79-6.53,5.4-9.24.59-1,1.14-2,1.66-3a2.28,2.28,0,0,1,3.8-.35L26,109c1.78,2.21,3.63,4.37,5.48,6.52,3.67,4.26,6.88,8.77,10.68,12.91,5.14,5.61,9.72,11.18,13.26,17.95C58.9,153,61.59,160,65.06,166.62s8.41,12.33,13,18,9.64,10.94,13.09,17.22c1.66,3,3.19,6.14,4.84,9.17,1.75,3.22,4,6.13,5.65,9.39s2.94,6.8,4.44,10.19a66.27,66.27,0,0,0,6.17,10.55c4.95,7.24,10.27,14.61,14.43,22.33.26.48,1.42-.09,1.31-.56-1.52-7-3.82-14.3-7.78-20.32s-7.71-11.51-10.44-18.13a87.56,87.56,0,0,0-3.87-8.62c-1.8-3.29-4.07-6.17-5.34-9.73-2.39-6.71-4.68-12.85-8.5-18.92S83.49,176,79.23,170.32a104.16,104.16,0,0,1-11-18c-3.13-6.55-6.16-13.21-10.55-19S47.93,122.58,43.39,117c-2.58-3.19-5.35-6.18-8.12-9.2-1.48-1.61-3-3.21-4.38-4.89-.43-.52-4.67-3.69-2.59-12.49,1.44-6.13,5.44-10.87,9.68-15.32,2.7-2.83,10.44-3,12.13-.21,2.15,3.5,4.94,8.68,6.74,12.37,3.72,7.6,7,14.15,10.12,22,3,7.56,4.78,17.72,8.84,24.76,4.24,7.35,11,14.6,15.09,22.05s7.62,12.6,9.71,21c.9,3.64,1.43,7.41,2.55,11a39.46,39.46,0,0,0,5.39,10.51,56.85,56.85,0,0,1,6,10.45c1.69,4,2.64,8.2,4.32,12.13a20.61,20.61,0,0,0,2.37,3.86,20.43,20.43,0,0,1,3,6.1,96.29,96.29,0,0,0,4.48,11.4c3.62,7.7,8.58,13.6,14.34,19.76,2.37,2.54,5.07,6.15,8.14,7.82,1.86,1,9.16,7.26,10.73,7.26s16.47-10.57,23.89-15.91c6.35-4.59,12.18-11.9,16.62-18.42.44-.64,21-28.19,28.3-42.36,3.74-7.26,7.45-14.46,11.43-21.58a79.82,79.82,0,0,0,4.26-8.78A65.21,65.21,0,0,1,253,158c8.2-12.18,16-25.25,21.06-39.09,2.86-7.82,5.12-15.82,9.05-23.22a69,69,0,0,1,8-11.31,7.15,7.15,0,0,1,10.44-.63c2.68,2.57,5.36,5.84,5.82,9,.43,3-.37,6-.52,8.94a19.94,19.94,0,0,0,2.7,11l0,0a3.84,3.84,0,0,1-.72,4.62c-7.49,7.09-14.14,15.26-20.59,23.21-7.77,9.59-15.17,19.49-22.64,29.32q-11.38,15-23.2,29.62c-7.25,9-14.62,18.42-20.19,28.58-5,9.14-7.66,22.64-16,29.49-.27.22,1.21,1,1.65.72,6.59-4.84,10.32-16.5,13.68-23.64,4.85-10.35,10.35-16.77,17.57-25.52,7.74-9.38,16.07-18.27,23.65-27.77,7.83-9.82,15.14-20.06,22.87-30,7.21-9.24,14.83-18.1,22.39-27a4.47,4.47,0,0,1,7.68,1.61A26.75,26.75,0,0,1,317,135.71Z"/></g></svg>