<svg id="Layer_1" data-name="Layer 1" xmlns="http://www.w3.org/2000/svg" viewBox="0 0 24 24"><title>12Artboard 1</title><path d="M0,12A11.75,11.75,0,0,1,1.61,6,11.9,11.9,0,0,1,6,1.61,11.75,11.75,0,0,1,12,0a11.75,11.75,0,0,1,6,1.61A11.9,11.9,0,0,1,22.39,6,11.75,11.75,0,0,1,24,12a11.75,11.75,0,0,1-1.61,6A11.9,11.9,0,0,1,18,22.39,11.75,11.75,0,0,1,12,24a11.75,11.75,0,0,1-6-1.61A11.9,11.9,0,0,1,1.61,18,11.75,11.75,0,0,1,0,12Zm2,0a9.66,9.66,0,0,0,2.52,6.6,13.88,13.88,0,0,1,3.65-4.3A11.88,11.88,0,0,1,13,11.74c-.24-.56-.47-1.07-.69-1.52a29.21,29.21,0,0,1-8.93,1.32c-.63,0-1.09,0-1.39,0,0,.06,0,.14,0,.24S2,11.94,2,12ZM2.3,9.53c.36,0,.88.05,1.56.05A26.31,26.31,0,0,0,11.47,8.5a24,24,0,0,0-4-5.4A9.77,9.77,0,0,0,4.21,5.76,10.35,10.35,0,0,0,2.3,9.53ZM5.88,19.9A9.76,9.76,0,0,0,12,22a10,10,0,0,0,3.53-.67,35.67,35.67,0,0,0-1.87-7.95A10.21,10.21,0,0,0,9.2,15.82,13.54,13.54,0,0,0,5.88,19.9ZM9.55,2.33a25.2,25.2,0,0,1,3.91,5.45A12,12,0,0,0,18.38,4.3,9.69,9.69,0,0,0,12,2,9,9,0,0,0,9.55,2.33Zm4.78,7.15c.24.51.51,1.16.81,1.94,1.19-.11,2.48-.16,3.87-.16,1,0,2,0,2.95.07a9.65,9.65,0,0,0-2.35-5.81A11.9,11.9,0,0,1,14.33,9.48Zm1.41,3.62a34.34,34.34,0,0,1,1.66,7.3,10.1,10.1,0,0,0,3.1-3.14,9.72,9.72,0,0,0,1.44-4.16C20.77,13,19.7,13,18.74,13S16.86,13,15.74,13.1Z"/></svg>