<svg id="Layer_1" data-name="Layer 1" xmlns="http://www.w3.org/2000/svg" viewBox="0 0 24 24"><defs><style>.cls-1{fill-rule:evenodd;}</style></defs><title>Artboard 1</title><path class="cls-1" d="M12,.3A12,12,0,0,0,8.21,23.68c.6.11.82-.26.82-.58s0-1,0-2c-3.34.73-4-1.6-4-1.6A3.21,3.21,0,0,0,3.64,17.7C2.55,17,3.72,17,3.72,17a2.55,2.55,0,0,1,1.84,1.24,2.55,2.55,0,0,0,3.49,1,2.59,2.59,0,0,1,.76-1.6c-2.66-.3-5.47-1.33-5.47-5.93A4.63,4.63,0,0,1,5.58,8.45,4.31,4.31,0,0,1,5.7,5.27S6.7,5,9,6.5a11.45,11.45,0,0,1,6,0C17.3,5,18.3,5.27,18.3,5.27a4.31,4.31,0,0,1,.12,3.18,4.63,4.63,0,0,1,1.23,3.22c0,4.61-2.8,5.62-5.47,5.92A2.86,2.86,0,0,1,15,19.81c0,1.61,0,2.9,0,3.29s.21.7.82.58A12,12,0,0,0,12,.3Z"/></svg>