<svg id="Layer_1" data-name="Layer 1" xmlns="http://www.w3.org/2000/svg" viewBox="0 0 400 400"><title>aweArtboard 1</title><path d="M268.11,48H131.89A84,84,0,0,0,48,131.89V268.11A84,84,0,0,0,131.89,352H268.11A84,84,0,0,0,352,268.11V131.89A84,84,0,0,0,268.11,48ZM325,268.11A57,57,0,0,1,268.11,325H131.89A57,57,0,0,1,75,268.11V131.89A57,57,0,0,1,131.89,75H268.11A57,57,0,0,1,325,131.89V268.11Z"/><path d="M200,121.67A78.33,78.33,0,1,0,278.33,200,78.42,78.42,0,0,0,200,121.67Zm0,129.69A51.36,51.36,0,1,1,251.36,200,51.42,51.42,0,0,1,200,251.36Z"/><path d="M281.62,98.8a19.77,19.77,0,1,0,14,5.79A19.83,19.83,0,0,0,281.62,98.8Z"/></svg>