<?xml version="1.0" encoding="utf-8"?>
<!-- Generator: Adobe Illustrator 23.1.0, SVG Export Plug-In . SVG Version: 6.00 Build 0)  -->
<svg version="1.1" id="Layer_1" xmlns="http://www.w3.org/2000/svg" xmlns:xlink="http://www.w3.org/1999/xlink" x="0px" y="0px"
	 viewBox="0 0 24 24" style="enable-background:new 0 0 24 24;" xml:space="preserve">
<style type="text/css">
	.st0{fill:#FFFFFF;}
</style>
<title>49Artboard 1</title>
<path class="st0" d="M23.7,9.3c-0.4-1.7-1.1-3.2-2.2-4.6c-4-5.2-11.6-6.2-16.8-2.2C3.9,3.1,3.1,3.9,2.5,4.7C1.4,6,0.7,7.6,0.3,9.2
	C0.1,10.1,0,11.1,0,12c0,1.1,0.2,2.3,0.5,3.4C2,20.5,6.7,24,12,24c0.6,0,1.3,0,1.9-0.2c4.6-0.7,8.3-4,9.6-8.5
	C24.1,13.4,24.2,11.3,23.7,9.3z M21.8,12c0,0.8-0.1,1.6-0.3,2.4c-1.1,0.8-2.2,1.4-3.5,1.9c0.3-1.1,0.4-2.2,0.5-3.3
	c1.1-0.4,2.2-1,3.3-1.6C21.8,11.6,21.8,11.8,21.8,12z M2.5,14.4c-0.2-0.8-0.3-1.6-0.3-2.4c0-0.2,0-0.4,0-0.6c1,0.6,2.1,1.2,3.3,1.6
	c0.1,1.1,0.2,2.2,0.5,3.3C4.7,15.8,3.6,15.2,2.5,14.4z M18.5,10.7c-0.1-1-0.2-2-0.5-2.9c0.8-0.3,1.5-0.6,2.3-1
	c0.5,0.7,0.8,1.5,1.1,2.3C20.5,9.7,19.6,10.2,18.5,10.7z M17.5,5.6c-0.3-0.8-0.7-1.6-1.1-2.4c0.9,0.5,1.8,1.1,2.5,1.8
	C18.4,5.2,17.9,5.5,17.5,5.6L17.5,5.6z M15.9,8.3c0.2,1,0.4,2.1,0.4,3.1c-2.9,0.8-5.9,0.8-8.7,0c0-1,0.2-2.1,0.4-3.1
	c1.3,0.3,2.6,0.4,4,0.4C13.3,8.7,14.6,8.6,15.9,8.3z M6.6,5.6C6.1,5.5,5.6,5.2,5.1,5c0.7-0.7,1.6-1.4,2.6-1.8C7.3,4,6.9,4.8,6.6,5.6
	z M6,7.7c-0.2,1-0.4,1.9-0.5,2.9c-1-0.4-1.9-1-2.8-1.6c0.3-0.8,0.6-1.6,1.1-2.3C4.5,7.1,5.2,7.5,6,7.7z M8.5,17.1
	c-0.4-1.1-0.6-2.2-0.7-3.4c1.4,0.3,2.8,0.5,4.3,0.5c1.4,0,2.9-0.2,4.3-0.5c-0.1,1.2-0.4,2.3-0.7,3.4C13.2,17.6,10.8,17.6,8.5,17.1z
	 M12,2.2c0.4,0,0.7,0,1.1,0.1c0.9,1.2,1.6,2.5,2.2,3.9c-2.2,0.4-4.4,0.4-6.5,0c0.5-1.4,1.3-2.7,2.2-3.9C11.3,2.2,11.6,2.2,12,2.2z
	 M4.2,17.9c0.8,0.4,1.7,0.7,2.6,1c0.2,0.7,0.5,1.3,0.9,1.9C6.3,20.1,5.1,19.1,4.2,17.9z M10.9,21.7c-0.5-0.7-1-1.5-1.4-2.3
	c1.7,0.2,3.4,0.2,5.1,0c-0.4,0.8-1,1.6-1.5,2.3C12.4,21.8,11.6,21.8,10.9,21.7z M16.4,20.8c0.3-0.6,0.6-1.3,0.9-1.9
	c0.9-0.3,1.8-0.6,2.6-1C18.9,19.1,17.7,20.1,16.4,20.8z"/>
</svg>
