<?xml version="1.0" encoding="utf-8"?>
<!-- Generator: Adobe Illustrator 23.1.0, SVG Export Plug-In . SVG Version: 6.00 Build 0)  -->
<svg version="1.1" id="Layer_1" xmlns="http://www.w3.org/2000/svg" xmlns:xlink="http://www.w3.org/1999/xlink" x="0px" y="0px"
	 viewBox="0 0 24 24" style="enable-background:new 0 0 24 24;" xml:space="preserve">
<style type="text/css">
	.st0{fill:#FFFFFF;}
</style>
<title>12Artboard 1</title>
<path class="st0" d="M0,12c0-2.1,0.5-4.2,1.6-6c1-1.8,2.6-3.3,4.4-4.4C7.8,0.5,9.9,0,12,0c2.1,0,4.2,0.5,6,1.6
	c1.8,1,3.3,2.6,4.4,4.4c1.1,1.8,1.6,3.9,1.6,6c0,2.1-0.5,4.2-1.6,6c-1,1.8-2.6,3.3-4.4,4.4c-1.8,1.1-3.9,1.6-6,1.6
	c-2.1,0-4.2-0.5-6-1.6c-1.8-1-3.3-2.6-4.4-4.4C0.5,16.2,0,14.1,0,12z M2,12c0,2.4,0.9,4.8,2.5,6.6c0.9-1.7,2.2-3.1,3.7-4.3
	c1.4-1.2,3-2.1,4.8-2.6c-0.2-0.6-0.5-1.1-0.7-1.5c-2.9,0.9-5.9,1.3-8.9,1.3c-0.6,0-1.1,0-1.4,0c0,0.1,0,0.1,0,0.2S2,11.9,2,12z
	 M2.3,9.5c0.4,0,0.9,0.1,1.6,0.1c2.6,0,5.1-0.3,7.6-1.1c-1.1-2-2.4-3.8-4-5.4C6.2,3.7,5.1,4.6,4.2,5.8C3.3,6.9,2.7,8.2,2.3,9.5z
	 M5.9,19.9C7.6,21.3,9.8,22,12,22c1.2,0,2.4-0.2,3.5-0.7c-0.3-2.7-0.9-5.4-1.9-7.9c-1.7,0.4-3.2,1.3-4.5,2.4
	C7.8,16.9,6.7,18.3,5.9,19.9z M9.6,2.3c1.5,1.6,2.9,3.5,3.9,5.4c1.9-0.7,3.6-1.9,4.9-3.5C16.6,2.8,14.3,2,12,2
	C11.2,2,10.3,2.1,9.6,2.3z M14.3,9.5c0.2,0.5,0.5,1.2,0.8,1.9c1.2-0.1,2.5-0.2,3.9-0.2c1,0,2,0,3,0.1c-0.1-2.1-0.9-4.2-2.4-5.8
	C18.3,7.3,16.4,8.7,14.3,9.5z M15.7,13.1c0.8,2.4,1.4,4.8,1.7,7.3c1.3-0.8,2.3-1.9,3.1-3.1c0.8-1.3,1.3-2.7,1.4-4.2
	C20.8,13,19.7,13,18.7,13S16.9,13,15.7,13.1z"/>
</svg>
