<?xml version="1.0" encoding="utf-8"?>
<!-- Generator: Adobe Illustrator 23.1.0, SVG Export Plug-In . SVG Version: 6.00 Build 0)  -->
<svg version="1.1" id="Layer_1" xmlns="http://www.w3.org/2000/svg" xmlns:xlink="http://www.w3.org/1999/xlink" x="0px" y="0px"
	 viewBox="0 0 24 24" style="enable-background:new 0 0 24 24;" xml:space="preserve">
<style type="text/css">
	.st0{fill-rule:evenodd;clip-rule:evenodd;fill:#FFFFFF;}
</style>
<title>Artboard 1</title>
<path class="st0" d="M12,0.3c-6.6,0-12,5.4-12,12c0,5.2,3.3,9.7,8.2,11.4C8.8,23.8,9,23.4,9,23.1s0-1,0-2c-3.3,0.7-4-1.6-4-1.6
	c-0.2-0.7-0.7-1.4-1.4-1.8C2.5,17,3.7,17,3.7,17c0.8,0.1,1.4,0.6,1.8,1.2c0.7,1.2,2.2,1.7,3.5,1c0,0,0,0,0,0
	c0.1-0.6,0.3-1.2,0.8-1.6c-2.7-0.3-5.5-1.3-5.5-5.9c0-1.2,0.4-2.4,1.2-3.3c-0.4-1-0.3-2.2,0.1-3.2c0,0,1-0.3,3.3,1.2
	c2-0.5,4-0.5,6,0c2.3-1.5,3.3-1.2,3.3-1.2c0.4,1,0.5,2.1,0.1,3.2c0.8,0.9,1.2,2,1.2,3.2c0,4.6-2.8,5.6-5.5,5.9
	c0.6,0.6,0.9,1.4,0.8,2.2c0,1.6,0,2.9,0,3.3s0.2,0.7,0.8,0.6c6.3-2.1,9.7-8.9,7.6-15.2C21.8,3.6,17.2,0.3,12,0.3z"/>
</svg>
