<?xml version="1.0" encoding="utf-8"?>
<!-- Generator: Adobe Illustrator 23.1.0, SVG Export Plug-In . SVG Version: 6.00 Build 0)  -->
<svg version="1.1" id="Layer_1" xmlns="http://www.w3.org/2000/svg" xmlns:xlink="http://www.w3.org/1999/xlink" x="0px" y="0px"
	 viewBox="0 0 24 24" style="enable-background:new 0 0 24 24;" xml:space="preserve">
<style type="text/css">
	.st0{fill:#FFFFFF;}
</style>
<title>aweArtboard 1</title>
<path class="st0" d="M17.4,0H6.6C3,0,0,3,0,6.6v10.8C0,21,3,24,6.6,24h10.8c3.7,0,6.6-3,6.6-6.6V6.6C24,3,21,0,17.4,0z M21.9,17.4
	c0,2.5-2,4.5-4.5,4.5H6.6c-2.5,0-4.5-2-4.5-4.5V6.6c0-2.5,2-4.5,4.5-4.5h10.8c2.5,0,4.5,2,4.5,4.5V17.4z"/>
<path class="st0" d="M12,5.8c-3.4,0-6.2,2.8-6.2,6.2s2.8,6.2,6.2,6.2s6.2-2.8,6.2-6.2l0,0C18.2,8.6,15.4,5.8,12,5.8z M12,16.1
	c-2.2,0-4.1-1.8-4.1-4.1S9.8,7.9,12,7.9s4.1,1.8,4.1,4.1C16.1,14.2,14.2,16.1,12,16.1z"/>
<path class="st0" d="M18.4,4c-0.9,0-1.6,0.7-1.6,1.6c0,0.9,0.7,1.6,1.6,1.6c0.9,0,1.6-0.7,1.6-1.6c0-0.4-0.2-0.8-0.5-1.1
	C19.3,4.2,18.9,4,18.4,4z"/>
</svg>
