<?xml version="1.0" encoding="utf-8"?>
<!-- Generator: Adobe Illustrator 23.1.0, SVG Export Plug-In . SVG Version: 6.00 Build 0)  -->
<svg version="1.1" id="Layer_1" xmlns="http://www.w3.org/2000/svg" xmlns:xlink="http://www.w3.org/1999/xlink" x="0px" y="0px"
	 viewBox="0 0 24 24" style="enable-background:new 0 0 24 24;" xml:space="preserve">
<style type="text/css">
	.st0{fill:#FFFFFF;}
</style>
<title>43Artboard 1</title>
<path class="st0" d="M0,1v22c0,0.6,0.4,1,1,1h22c0.6,0,1-0.4,1-1V1c0-0.6-0.4-1-1-1H1C0.4,0,0,0.4,0,1z M7.3,20.3H3.8V8.9h3.5V20.3z
	 M5.5,7.4c-1.1,0-2-0.9-1.9-2s0.9-2,2-1.9c1.1,0,1.9,0.9,1.9,1.9c0,1.1-0.8,2-1.9,2.1C5.6,7.4,5.5,7.4,5.5,7.4z M20.5,13.9v6.4H17
	v-3.9c0-1.7,0.4-4.6-1.9-4.6S13,14.1,13,15.3v5H9.5V8.9H13v1.5c0,0,0.8-1.9,3.6-1.9C21,8.6,20.5,13.9,20.5,13.9L20.5,13.9z"/>
</svg>
